/* XPM */
static char * floor_xpm[] = {
"32 32 234 2",
"  	c #745112",
". 	c #745111",
"+ 	c #745110",
"@ 	c #775412",
"# 	c #7D5915",
"$ 	c #865F17",
"% 	c #8E6518",
"& 	c #8D6418",
"* 	c #825C15",
"= 	c #795615",
"- 	c #765418",
"; 	c #755319",
"> 	c #75531A",
", 	c #755211",
"' 	c #7A5613",
") 	c #815C16",
"! 	c #896117",
"~ 	c #906618",
"{ 	c #8E6418",
"] 	c #835D16",
"^ 	c #7B5715",
"/ 	c #775416",
"( 	c #755217",
"_ 	c #755218",
": 	c #795512",
"< 	c #7F5914",
"[ 	c #926719",
"} 	c #8F6518",
"| 	c #855E17",
"1 	c #7D5815",
"2 	c #775414",
"3 	c #745213",
"4 	c #745113",
"5 	c #745214",
"6 	c #7E5914",
"7 	c #815B15",
"8 	c #755212",
"9 	c #745114",
"0 	c #765314",
"a 	c #795514",
"b 	c #815B16",
"c 	c #936819",
"d 	c #7E5915",
"e 	c #785512",
"f 	c #745212",
"g 	c #886016",
"h 	c #886017",
"i 	c #785415",
"j 	c #755316",
"k 	c #765318",
"l 	c #7A5618",
"m 	c #825C18",
"n 	c #8E6419",
"o 	c #7F5A15",
"p 	c #785413",
"q 	c #775413",
"r 	c #785412",
"s 	c #815B14",
"t 	c #835D18",
"u 	c #7B5717",
"v 	c #775417",
"w 	c #755318",
"x 	c #765319",
"y 	c #775419",
"z 	c #7B5719",
"A 	c #835C19",
"B 	c #845E16",
"C 	c #805A16",
"D 	c #7F5A16",
"E 	c #755210",
"F 	c #775311",
"G 	c #805A14",
"H 	c #8D6317",
"I 	c #8F6619",
"J 	c #876019",
"K 	c #7F5B18",
"L 	c #795516",
"M 	c #765316",
"N 	c #785417",
"O 	c #7C5818",
"P 	c #845D18",
"Q 	c #8D6318",
"R 	c #8C6318",
"S 	c #765211",
"T 	c #7D5713",
"U 	c #916719",
"V 	c #8C641A",
"W 	c #866019",
"X 	c #815B17",
"Y 	c #7F5916",
"Z 	c #805A17",
"` 	c #886118",
" .	c #926819",
"..	c #90661A",
"+.	c #8F661A",
"@.	c #755110",
"#.	c #875F16",
"$.	c #8F6519",
"%.	c #8D6419",
"&.	c #8B631C",
"*.	c #88611D",
"=.	c #785513",
"-.	c #7F5A17",
";.	c #89611B",
">.	c #90661C",
",.	c #92681A",
"'.	c #8C6317",
").	c #896119",
"!.	c #835E1C",
"~.	c #805C1D",
"{.	c #755313",
"].	c #815C1F",
"^.	c #89621F",
"/.	c #825B15",
"(.	c #7E5813",
"_.	c #7D5816",
":.	c #7B581A",
"<.	c #79571C",
"[.	c #765417",
"}.	c #7A571D",
"|.	c #815C1E",
"1.	c #89611A",
"2.	c #906619",
"3.	c #91671A",
"4.	c #8B6218",
"5.	c #805B15",
"6.	c #795513",
"7.	c #765311",
"8.	c #755314",
"9.	c #765419",
"0.	c #76551C",
"a.	c #755213",
"b.	c #7A5617",
"c.	c #845D16",
"d.	c #876018",
"e.	c #8C6319",
"f.	c #916619",
"g.	c #8C641B",
"h.	c #855F19",
"i.	c #7C5815",
"j.	c #765312",
"k.	c #76541D",
"l.	c #7C5713",
"m.	c #87601A",
"n.	c #745215",
"o.	c #75531B",
"p.	c #76541E",
"q.	c #7A5614",
"r.	c #7F5A14",
"s.	c #795613",
"t.	c #755215",
"u.	c #75541C",
"v.	c #76551F",
"w.	c #765521",
"x.	c #76551E",
"y.	c #755214",
"z.	c #7A5615",
"A.	c #7F5915",
"B.	c #825C16",
"C.	c #876017",
"D.	c #876016",
"E.	c #835D15",
"F.	c #76541C",
"G.	c #7A5B30",
"H.	c #79592B",
"I.	c #775622",
"J.	c #75541B",
"K.	c #77551A",
"L.	c #7B571B",
"M.	c #815C1A",
"N.	c #785517",
"O.	c #77551C",
"P.	c #7A5C31",
"Q.	c #795A2D",
"R.	c #775623",
"S.	c #76541A",
"T.	c #7A571B",
"U.	c #815C1C",
"V.	c #89611C",
"W.	c #77551D",
"X.	c #765520",
"Y.	c #785827",
"Z.	c #775624",
"`.	c #755216",
" +	c #775316",
".+	c #7E5917",
"++	c #845D17",
"@+	c #825C17",
"#+	c #805B16",
"$+	c #845E17",
"%+	c #8A6117",
"&+	c #75541D",
"*+	c #7C5816",
"=+	c #7A5616",
"-+	c #785516",
";+	c #775415",
">+	c #7C5714",
",+	c #8A6217",
"'+	c #805A15",
")+	c #7B5714",
"!+	c #8C6418",
"~+	c #93691A",
"{+	c #765317",
"]+	c #775312",
"^+	c #7B5613",
"/+	c #835C16",
"(+	c #7D5814",
"_+	c #775522",
":+	c #785514",
"<+	c #7A5514",
"[+	c #76531C",
"}+	c #76541F",
"|+	c #755111",
"1+	c #765212",
"2+	c #7C5814",
"3+	c #835D17",
"4+	c #775313",
"5+	c #886119",
"6+	c #845E18",
"7+	c #8F661B",
"8+	c #90661B",
"9+	c #8E651A",
"0+	c #8A6219",
"a+	c #8B6318",
"b+	c #93681A",
"c+	c #92671A",
"d+	c #92681B",
"e+	c #8B6319",
"f+	c #8D651A",
"g+	c #865F18",
"h+	c #7B5713",
"i+	c #765313",
"j+	c #8A6218",
"k+	c #90671B",
"    . . + + + + + + + + + + + + . . . . . @ # $ % & * = - ; > > ",
". . . . + + + + + + , , , , + + . . . . , ' ) ! ~ { ] ^ / ( _ _ ",
". + + + + + . . + , @ : : @ , + . . . , @ < ! ~ [ } | 1 2 3 4 5 ",
"+ + + + + + . . , : 6 7 7 6 : 8 3 4 9 0 a b & c c } $ d e , 8 f ",
"+ + + + . . + , @ 6 g & & h d i j ( _ k l m n c c } $ o ' p q 0 ",
"+ + + + . . + , r s & c c n t u v w x y z A n c c ~ ! B * 7 C D ",
". . . . + + + E F G H c c I J K L M N l O P n c c [ ~ % & & Q R ",
". . . . + + + + S T g } [ U V W X Y Z m t ` I c c c c c c  ...+.",
"+ + + + + + + + @.r < #.}  .U $.& R Q %.n I [ c c c c c c ..&.*.",
". . + + + + + + + , =.-.;.>.,.c c c c c c [ } & '.'.'.'.'.).!.~.",
"f f . . + + . . + . {.l ].^.>.c c c c c c } g /.< (.(.(.(._.:.<.",
"f f . . + + . . + .   [.}.|.1.{ $.2.[  .3.4.5.6.7., , , , 8.9.0.",
". . + + + + + + + + . a./ b.D c.d.e.f.3.g.h.i.j.. + + + + 5 > k.",
"+ + + + + + + + , , j.r l.< 7 c.d.e.f.3.g.m.b l.r 7.S , + n.o.p.",
"3 f . . . . + , @ 6.q.o g '.& { $.2.[  .3.$.& g r.' s.r , t.u.v.",
"w.x.; t.n.y.0 z.A.b B.C.} c c c c c c c c c c } D.E.* r.: M F.v.",
"G.H.I.J.> K.L.M.).& { $.[ c c c c c c c c c c [ } { & h r.N.O.v.",
"P.Q.R.F.S.T.U.V...[ ~ { & & & & % ~ [ c c [ } { & & & h r.N.W.X.",
"Y.Z.u.`. +.+)...[ ~ ! ++@+X #+b $+%+~ c c } h ] B.* * r.: M k.X.",
"&+> n.  j.< R c c { c.*+=+-+;+a >+B.,+{ & h '+)+' s.6.r , `.p.w.",
"n.5   . , 6 !+~+c & * z.v {+a., ]+^+b /+7 (+: 7.S S S , . `.p._+",
"+ + + . j.6 !+~+c & 7 :+M `.  + + 7.<+q.p j., + . . . .   `.[+}+",
", , , j.=.7 & c c Q '+q y.9 . + + |+1+j., |++ .         a.t.( _ ",
">+>+2+2+# 3+{ c c H '+4+8   . + + + . . + + + . f 3   4 y.y.4   ",
"m.5+5+d.6+d.$.c c H G ]+, . + + + + + + + + + .         3 3   . ",
"7+7+8+9+0+a+2.c b+R < 7.@.+ + + + + + + + + + . .       f f . . ",
"c+c+,.U 2.2.[ b+d+e+6 , + + + + + + + + + + . . . . . . . . . . ",
"& & { } [ c c U f+g+h+, + + + + + + + + + + . . . . . . . . . . ",
"7 B.] h } c c % | (+@ + + + + + + + + + + + . . + + + + + + + + ",
":+a >+] { c  .R o ]+, + + + + + + + + + + . 4 4   . + + + + + + ",
"a.i+a B.&  .3.j+(+, + + + + + + + + + + . 4 `.`.5 f . . + + . . ",
"4 a.:+7 & ,.k+).2+, + + + + + + + + + + . 3 ( w n.3   . + + . . "};
