/* XPM */
static char * wall_xpm[] = {
"32 32 112 2",
"  	c #000037",
". 	c #000038",
"+ 	c #000039",
"@ 	c #00003A",
"# 	c #00003B",
"$ 	c #000036",
"% 	c #000033",
"& 	c #000031",
"* 	c #000032",
"= 	c #000034",
"- 	c #000035",
"; 	c #00003C",
"> 	c #000026",
", 	c #00001C",
"' 	c #00001F",
") 	c #00001D",
"! 	c #00001B",
"~ 	c #000024",
"{ 	c #00003E",
"] 	c #00002B",
"^ 	c #000020",
"/ 	c #000022",
"( 	c #000025",
"_ 	c #00002C",
": 	c #00003F",
"< 	c #000007",
"[ 	c #00000B",
"} 	c #00000E",
"| 	c #00000A",
"1 	c #000005",
"2 	c #000000",
"3 	c #000018",
"4 	c #00002F",
"5 	c #00000C",
"6 	c #000012",
"7 	c #000027",
"8 	c #000041",
"9 	c #000023",
"0 	c #00000D",
"a 	c #000011",
"b 	c #000013",
"c 	c #000010",
"d 	c #00003D",
"e 	c #00001E",
"f 	c #000004",
"g 	c #000002",
"h 	c #000003",
"i 	c #00001A",
"j 	c #000042",
"k 	c #000028",
"l 	c #000021",
"m 	c #000029",
"n 	c #00002E",
"o 	c #000043",
"p 	c #000040",
"q 	c #010133",
"r 	c #000044",
"s 	c #01013E",
"t 	c #02023E",
"u 	c #02023D",
"v 	c #01013D",
"w 	c #010140",
"x 	c #02023F",
"y 	c #010138",
"z 	c #020237",
"A 	c #020239",
"B 	c #010141",
"C 	c #01011E",
"D 	c #01012A",
"E 	c #000019",
"F 	c #000015",
"G 	c #00002D",
"H 	c #000009",
"I 	c #000017",
"J 	c #010113",
"K 	c #000014",
"L 	c #000016",
"M 	c #010125",
"N 	c #010127",
"O 	c #00002A",
"P 	c #000030",
"Q 	c #02022C",
"R 	c #01012E",
"S 	c #01012C",
"T 	c #010131",
"U 	c #010130",
"V 	c #000001",
"W 	c #000008",
"X 	c #01013A",
"Y 	c #01013B",
"Z 	c #010136",
"` 	c #010135",
" .	c #01012B",
"..	c #000045",
"+.	c #010117",
"@.	c #020217",
"#.	c #01010B",
"$.	c #010104",
"%.	c #020200",
"&.	c #010119",
"*.	c #01010C",
"=.	c #020201",
"-.	c #01011F",
";.	c #010139",
">.	c #010122",
",.	c #010137",
"'.	c #02023B",
").	c #01013F",
"!.	c #020240",
"~.	c #01013C",
"{.	c #03033C",
"].	c #03033D",
"  . . + + @ @ # # # # # # # # @ @ + + + + + + + + + + . $ $ . + ",
"+   % & & * * * * * * * * =   @ # + - * * * * * * * * & & %   + ",
"; $ > , ' ' ) , , , , ! , ~ & + { + ] ^ ^ ^ ^ ^ ^ ^ ^ / ( _ = . ",
": $ ' < [ } | 1 2 2 2 2 2 3 4 @ { . / 5 | 5 5 5 5 5 5 6 ! 7 % . ",
"8 . 9 0 } a b c 1 2 2 2 2 ! % ; d = e f g f f f f h f 0 i 7 % . ",
"j ; 4 > > 7 k 7 9 l ^ ' e m . : d $ 7 ) , , , , , ) e / 7 n - . ",
"o 8 { ; # # # # @ @ + .   + { p : ;   = q q q q % = $   . . . . ",
"j j r r r o j j o o j 8 8 8 j j 8 p : s t u v v d { p p : ; . - ",
": p 8 o o o j 8 8 8 8 8 j o o o o o j w x x w w p 8 j 8 { + % 4 ",
"= -   . . @ d { { ; + + @ # # # # # + y z A s B 8 : # . = 4 m ( ",
") ) e ' ' k = + @ - ] ~ ( > ( ~ 9 l ^ ' C D + p p + ] ' , E F b ",
"2 2 2 2 2 3 G $   4 e 5 [ 5 5 H g 2 2 2 2 e $ p : $ ) 2 2 2 2 2 ",
"2 2 2 2 2 I _ = = G E h g h h g 2 2 2 2 2 e   p : - ) 2 2 2 2 2 ",
"J K I 3 i 9 4 = = n l 3 E E 3 3 3 3 i i ! m @ 8 :   > E i i L b ",
"M N O G P * - - = * n G n n G _ _ G P P & $ { 8 : + * 4 & 4 O > ",
"Q R * $ . .   $ - = = - $ - = = = -       + d { ; @   $     = * ",
"S R * $ . . - = = = = = = = = - - - = = = -   . .   $ - % - . @ ",
"T U n G 4 4 _ ] _ _ _ _ ] n =   . = n O m O _ G G G G _ _ & @ { ",
"@ % ~ 3 E E 3 I I 3 3 I I ~ = # # = 9 L F L I 3 3 3 3 ! l G @ : ",
": $ ) 2 2 2 2 2 2 2 2 2 2 , = ; # * ! 2 V h h h h h h [ I k . { ",
"j . ' 2 2 2 2 2 2 2 2 2 2 , % # + 4 E h W 5 5 5 5 5 5 } b ~ - ; ",
"o ; G / l l ' ' ' e e e e m   ; @ % 7 ' l 9 / 9 ~ ( ( ~ 9 O - # ",
"o 8 d # # @ .       $ $ $ . ; { d @ . $ $ $ - $ . + + . $ $ X Y ",
"8 j j o r o p : : : { { { { { { { { { { { { { : 8 8 p { ; # X X ",
"d d { : 8 p { d d d ; ; ; ; ; d { { d d d : 8 o 8 p d # +   Z ` ",
"* * * % $ . @ # # + - * * * * % = - = % % . 8 r o {   * 4 G  . .",
"! ! ! , e k $ ; ; - 7 , ! , , , ) ) ) ! , ] d ....{ 4 / , 3 +.@.",
"2 2 2 2 g , * @ # * , h g h h g 2 2 2 2 2 ^ @ r ..{ _ i 6 #.$.%.",
"2 2 2 V W ) 4   . P e 5 [ 5 5 H g 2 2 2 2 ' + o r d n l ' &.*.=.",
"-.' ' ^ 9 O % . + = O 9 / / / l ' ) ) , ) m ;.B j d * _ _ m >.C ",
",.,.  . . + ; d d ; +   $ - - - - - - = = Z '.t ).v . $     $ ` ",
"!.w B 8 p p p p p p : { { d d d { { { d d ~.{.].u v # # # d { { "};
